<?xml version="1.0" encoding="UTF-8" standalone="no"?>
<svg
   xmlns:dc="http://purl.org/dc/elements/1.1/"
   xmlns:cc="http://creativecommons.org/ns#"
   xmlns:rdf="http://www.w3.org/1999/02/22-rdf-syntax-ns#"
   xmlns:svg="http://www.w3.org/2000/svg"
   xmlns="http://www.w3.org/2000/svg"
   xmlns:sodipodi="http://sodipodi.sourceforge.net/DTD/sodipodi-0.dtd"
   xmlns:inkscape="http://www.inkscape.org/namespaces/inkscape"
   viewBox="0 0 2030 483"
   version="1.1"
   id="svg14"
   sodipodi:docname="logo-f3.svg"
   inkscape:version="0.92.3 (2405546, 2018-03-11)">
  <metadata
     id="metadata20">
    <rdf:RDF>
      <cc:Work
         rdf:about="">
        <dc:format>image/svg+xml</dc:format>
        <dc:type
           rdf:resource="http://purl.org/dc/dcmitype/StillImage" />
      </cc:Work>
    </rdf:RDF>
  </metadata>
  <defs
     id="defs18" />
  <sodipodi:namedview
     pagecolor="#ffffff"
     bordercolor="#666666"
     borderopacity="1"
     objecttolerance="10"
     gridtolerance="10"
     guidetolerance="10"
     inkscape:pageopacity="0"
     inkscape:pageshadow="2"
     inkscape:window-width="1280"
     inkscape:window-height="667"
     id="namedview16"
     showgrid="false"
     showguides="false"
     inkscape:zoom="0.44168049"
     inkscape:cx="1020.7675"
     inkscape:cy="79.756268"
     inkscape:window-x="1280"
     inkscape:window-y="0"
     inkscape:window-maximized="1"
     inkscape:current-layer="flowRoot35" />
  <g
     aria-label="The art of computer programming"
     transform="matrix(2.8793318,0,0,4.0413152,-63.877606,49.401728)"
     style="font-style:normal;font-weight:normal;font-size:40px;line-height:1.25;font-family:sans-serif;letter-spacing:0px;word-spacing:0px;fill:#000000;fill-opacity:1;stroke:none"
     id="flowRoot52">
    <g
       aria-label="Jorge Barrero"
       transform="matrix(2.6040703,0,0,1.8318627,-67.473971,-35.401372)"
       style="font-style:normal;font-weight:normal;font-size:40px;line-height:1.25;font-family:sans-serif;letter-spacing:0px;word-spacing:0px;fill:#000000;fill-opacity:1;stroke:none"
       id="flowRoot35">
      <path
         d="M 44.679687,27.357422 H 48.625 v 27.128906 q 0,5.273438 -2.011719,7.65625 -1.992187,2.382813 -6.425781,2.382813 h -1.503906 v -3.320313 h 1.230468 q 2.617188,0 3.691407,-1.464844 1.074218,-1.464843 1.074218,-5.253906 z"
         style="fill:#000050"
         id="path43" />
      <path
         d="m 64.796875,37.162109 q -2.890625,0 -4.570313,2.265625 -1.679687,2.246094 -1.679687,6.171875 0,3.925782 1.660156,6.191407 1.679688,2.246093 4.589844,2.246093 2.871094,0 4.550781,-2.265625 1.679688,-2.265625 1.679688,-6.171875 0,-3.886718 -1.679688,-6.152343 -1.679687,-2.285157 -4.550781,-2.285157 z m 0,-3.046875 q 4.6875,0 7.363281,3.046875 2.675781,3.046875 2.675781,8.4375 0,5.371094 -2.675781,8.4375 -2.675781,3.046875 -7.363281,3.046875 -4.707031,0 -7.382813,-3.046875 -2.65625,-3.066406 -2.65625,-8.4375 0,-5.390625 2.65625,-8.4375 2.675782,-3.046875 7.382813,-3.046875 z"
         style="fill:#000050"
         id="path45" />
      <path
         d="m 93.449219,38.001953 q -0.605469,-0.351562 -1.328125,-0.507812 -0.703125,-0.175782 -1.5625,-0.175782 -3.046875,0 -4.6875,1.992188 Q 84.25,41.283203 84.25,44.994141 v 11.523437 h -3.613281 v -21.875 H 84.25 v 3.398438 q 1.132812,-1.992188 2.949219,-2.949219 1.816406,-0.976563 4.414062,-0.976563 0.371094,0 0.820313,0.05859 0.449218,0.03906 0.996093,0.136719 z"
         style="fill:#000050"
         id="path47" />
      <path
         d="m 110.94922,45.326172 q 0,-3.90625 -1.62109,-6.054688 -1.60157,-2.148437 -4.51172,-2.148437 -2.89063,0 -4.51172,2.148437 -1.601565,2.148438 -1.601565,6.054688 0,3.886719 1.601565,6.035156 1.62109,2.148438 4.51172,2.148438 2.91015,0 4.51172,-2.148438 1.62109,-2.148437 1.62109,-6.035156 z m 3.59375,8.476562 q 0,5.585938 -2.48047,8.300782 -2.48047,2.734375 -7.59766,2.734375 -1.89453,0 -3.57421,-0.292969 -1.679693,-0.273438 -3.261724,-0.859375 v -3.496094 q 1.582031,0.859375 3.125004,1.269531 1.54297,0.410157 3.14453,0.410157 3.53515,0 5.29297,-1.855469 1.75781,-1.835938 1.75781,-5.566406 v -1.777344 q -1.11328,1.933594 -2.85156,2.890625 -1.73828,0.957031 -4.16016,0.957031 -4.023438,0 -6.484375,-3.066406 -2.460938,-3.066406 -2.460938,-8.125 0,-5.078125 2.460938,-8.144531 2.460937,-3.066407 6.484375,-3.066407 2.42188,0 4.16016,0.957032 1.73828,0.957031 2.85156,2.890625 v -3.320313 h 3.59375 z"
         style="fill:#000050"
         id="path49" />
      <path
         d="m 140.65625,44.681641 v 1.757812 h -16.52344 q 0.23438,3.710938 2.22657,5.664063 2.01171,1.933593 5.58593,1.933593 2.07031,0 4.00391,-0.507812 1.95312,-0.507813 3.86719,-1.523438 v 3.398438 q -1.9336,0.820312 -3.96485,1.25 -2.03125,0.429687 -4.12109,0.429687 -5.23438,0 -8.30078,-3.046875 -3.04688,-3.046875 -3.04688,-8.242187 0,-5.371094 2.89063,-8.515625 2.91015,-3.164063 7.83203,-3.164063 4.41406,0 6.97265,2.851563 2.57813,2.832031 2.57813,7.714844 z m -3.59375,-1.054688 q -0.0391,-2.949219 -1.66016,-4.707031 -1.60156,-1.757813 -4.25781,-1.757813 -3.00781,0 -4.82422,1.699219 -1.79687,1.699219 -2.07031,4.785156 z"
         style="fill:#000050"
         id="path51" />
      <path
         d="m 163.39062,42.591797 v 10.683594 h 6.32813 q 3.18359,0 4.70703,-1.308594 1.54297,-1.328125 1.54297,-4.042969 0,-2.734375 -1.54297,-4.023437 -1.52344,-1.308594 -4.70703,-1.308594 z m 0,-11.992188 v 8.789063 h 5.83985 q 2.89062,0 4.29687,-1.074219 1.42578,-1.09375 1.42578,-3.320312 0,-2.207032 -1.42578,-3.300782 -1.40625,-1.09375 -4.29687,-1.09375 z m -3.94531,-3.242187 h 10.07813 q 4.51172,0 6.95312,1.875 2.44141,1.875 2.44141,5.332031 0,2.675781 -1.25,4.257813 -1.25,1.582031 -3.67188,1.972656 2.91016,0.625 4.51172,2.617187 1.6211,1.972657 1.6211,4.941407 0,3.90625 -2.65625,6.035156 -2.65625,2.128906 -7.5586,2.128906 h -10.46875 z"
         style="fill:#000050"
         id="path53" />
      <path
         d="m 196.65234,45.521484 q -4.35547,0 -6.03515,0.996094 -1.67969,0.996094 -1.67969,3.398438 0,1.914062 1.25,3.046875 1.26953,1.113281 3.4375,1.113281 2.98828,0 4.78516,-2.109375 1.8164,-2.128906 1.8164,-5.644531 v -0.800782 z m 7.16797,-1.484375 v 12.480469 h -3.59375 v -3.320312 q -1.23047,1.992187 -3.0664,2.949218 -1.83594,0.9375 -4.49219,0.9375 -3.35938,0 -5.35156,-1.875 -1.97266,-1.894531 -1.97266,-5.058593 0,-3.691407 2.46094,-5.566407 2.48047,-1.875 7.38281,-1.875 h 5.03906 v -0.351562 q 0,-2.480469 -1.64062,-3.828125 -1.6211,-1.367188 -4.57032,-1.367188 -1.875,0 -3.65234,0.449219 -1.77734,0.449219 -3.41797,1.347656 v -3.320312 q 1.97266,-0.761719 3.82813,-1.132813 1.85547,-0.390625 3.61328,-0.390625 4.74609,0 7.08984,2.460938 2.34375,2.460937 2.34375,7.460937 z"
         style="fill:#000050"
         id="path55" />
      <path
         d="m 223.91797,38.001953 q -0.60547,-0.351562 -1.32813,-0.507812 -0.70312,-0.175782 -1.5625,-0.175782 -3.04687,0 -4.6875,1.992188 -1.62109,1.972656 -1.62109,5.683594 v 11.523437 h -3.61328 v -21.875 h 3.61328 v 3.398438 q 1.13281,-1.992188 2.94922,-2.949219 1.8164,-0.976563 4.41406,-0.976563 0.37109,0 0.82031,0.05859 0.44922,0.03906 0.9961,0.136719 z"
         style="fill:#000050"
         id="path57" />
      <path
         d="m 239.69922,38.001953 q -0.60547,-0.351562 -1.32813,-0.507812 -0.70312,-0.175782 -1.5625,-0.175782 -3.04687,0 -4.6875,1.992188 Q 230.5,41.283203 230.5,44.994141 v 11.523437 h -3.61328 v -21.875 H 230.5 v 3.398438 q 1.13281,-1.992188 2.94922,-2.949219 1.8164,-0.976563 4.41406,-0.976563 0.37109,0 0.82031,0.05859 0.44922,0.03906 0.9961,0.136719 z"
         style="fill:#000050"
         id="path59" />
      <path
         d="m 261.35937,44.681641 v 1.757812 h -16.52343 q 0.23437,3.710938 2.22656,5.664063 2.01172,1.933593 5.58594,1.933593 2.07031,0 4.0039,-0.507812 1.95313,-0.507813 3.86719,-1.523438 v 3.398438 q -1.93359,0.820312 -3.96484,1.25 -2.03125,0.429687 -4.1211,0.429687 -5.23437,0 -8.30078,-3.046875 -3.04687,-3.046875 -3.04687,-8.242187 0,-5.371094 2.89062,-8.515625 2.91016,-3.164063 7.83203,-3.164063 4.41407,0 6.97266,2.851563 2.57812,2.832031 2.57812,7.714844 z m -3.59375,-1.054688 q -0.0391,-2.949219 -1.66015,-4.707031 -1.60156,-1.757813 -4.25781,-1.757813 -3.00782,0 -4.82422,1.699219 -1.79688,1.699219 -2.07032,4.785156 z"
         style="fill:#000050"
         id="path61" />
      <path
         d="m 279.93359,38.001953 q -0.60547,-0.351562 -1.32812,-0.507812 -0.70313,-0.175782 -1.5625,-0.175782 -3.04688,0 -4.6875,1.992188 -1.6211,1.972656 -1.6211,5.683594 v 11.523437 h -3.61328 v -21.875 h 3.61328 v 3.398438 q 1.13282,-1.992188 2.94922,-2.949219 1.81641,-0.976563 4.41407,-0.976563 0.37109,0 0.82031,0.05859 0.44922,0.03906 0.99609,0.136719 z"
         style="fill:#000050"
         id="path63" />
      <path
         d="m 291.35937,37.162109 q -2.89062,0 -4.57031,2.265625 -1.67969,2.246094 -1.67969,6.171875 0,3.925782 1.66016,6.191407 1.67969,2.246093 4.58984,2.246093 2.8711,0 4.55079,-2.265625 1.67968,-2.265625 1.67968,-6.171875 0,-3.886718 -1.67968,-6.152343 -1.67969,-2.285157 -4.55079,-2.285157 z m 0,-3.046875 q 4.6875,0 7.36329,3.046875 2.67578,3.046875 2.67578,8.4375 0,5.371094 -2.67578,8.4375 -2.67579,3.046875 -7.36329,3.046875 -4.70703,0 -7.38281,-3.046875 -2.65625,-3.066406 -2.65625,-8.4375 0,-5.390625 2.65625,-8.4375 2.67578,-3.046875 7.38281,-3.046875 z"
         style="fill:#000050"
         id="path65" />
    </g>
  </g>
</svg>
